<?xml version="1.0" encoding="UTF-8" standalone="no"?>
<!-- Created with Inkscape (http://www.inkscape.org/) -->

<svg
   width="1024"
   height="1024"
   viewBox="0 0 270.93333 270.93333"
   version="1.1"
   id="svg1"
   xml:space="preserve"
   inkscape:version="1.4 (86a8ad7, 2024-10-11)"
   sodipodi:docname="icon.svg"
   inkscape:export-filename="icon.png"
   inkscape:export-xdpi="96"
   inkscape:export-ydpi="96"
   xmlns:inkscape="http://www.inkscape.org/namespaces/inkscape"
   xmlns:sodipodi="http://sodipodi.sourceforge.net/DTD/sodipodi-0.dtd"
   xmlns="http://www.w3.org/2000/svg"
   xmlns:svg="http://www.w3.org/2000/svg"><sodipodi:namedview
     id="namedview1"
     pagecolor="#ffffff"
     bordercolor="#000000"
     borderopacity="0.25"
     inkscape:showpageshadow="2"
     inkscape:pageopacity="0.0"
     inkscape:pagecheckerboard="0"
     inkscape:deskcolor="#d1d1d1"
     inkscape:document-units="mm"
     showguides="false"
     inkscape:zoom="0.35945918"
     inkscape:cx="173.87232"
     inkscape:cy="326.87995"
     inkscape:window-width="1920"
     inkscape:window-height="1009"
     inkscape:window-x="-8"
     inkscape:window-y="-8"
     inkscape:window-maximized="1"
     inkscape:current-layer="layer1"
     inkscape:export-bgcolor="#ffffff00" /><defs
     id="defs1"><clipPath
       clipPathUnits="userSpaceOnUse"
       id="clipPath1"><rect
         style="fill:#000000;stroke-width:0.264583"
         id="rect2"
         width="121.81785"
         height="134.69888"
         x="43.206657"
         y="35.557655" /></clipPath></defs><g
     inkscape:label="Layer 1"
     inkscape:groupmode="layer"
     id="layer1"
     transform="translate(-39.15833,-28.93312)"><g
       id="g27"
       transform="translate(-0.12698633,0.08421069)"><path
         style="fill:#89cbc4"
         d="m 109.40721,281.92346 c -1.09994,-0.8918 -1.12565,-1.09079 -1.12447,-8.70206 10e-4,-8.82396 0.44317,-11.26815 3.00252,-16.61064 2.1538,-4.49594 7.92147,-10.46958 12.34338,-12.78419 3.75595,-1.96602 9.45399,-3.42785 13.36131,-3.42785 h 3.04574 l -3.71805,-1.95665 c -9.12007,-4.79948 -17.90955,-11.66928 -24.18207,-18.90056 L 108.30635,215.127 H 91.807398 75.30844 l -1.036767,-1.10359 c -1.004044,-1.06875 -1.036767,-1.45895 -1.036767,-12.36283 v -11.25925 l 1.256366,-0.98826 c 1.2513,-0.98427 1.44175,-0.98826 47.227328,-0.98826 h 45.97097 l 1.17039,1.17039 1.17039,1.17039 v 11.01032 11.01032 l -1.17039,1.17038 c -0.98253,0.98253 -1.65223,1.17697 -4.17222,1.21138 -2.56456,0.035 -2.79346,0.10399 -1.57135,0.47353 0.78676,0.2379 3.73711,0.69162 6.55634,1.00825 19.1012,2.14532 38.54728,-7.24057 49.35568,-23.82212 16.89444,-25.91835 7.64612,-61.09498 -19.81623,-75.37248 -17.6542,-9.1783 -39.6313,-7.61906 -55.28799,3.92262 l -2.98016,2.19688 v 15.04264 15.04264 l -1.17039,1.17039 -1.17038,1.17039 H 121.63263 104.662 l -1.17039,-1.17039 -1.17039,-1.17039 V 109.6151 65.570253 l 1.10359,-1.036767 c 1.09102,-1.02496 1.29968,-1.036767 18.32315,-1.036767 h 17.21956 l 0.98825,1.256366 c 0.93324,1.186413 0.98826,1.853239 0.98826,11.976233 0,9.995659 0.0564,10.701397 0.83445,10.446484 0.45894,-0.15036 3.30201,-1.124267 6.31792,-2.164238 9.64271,-3.325069 14.8327,-4.113517 26.94061,-4.092733 9.53666,0.01637 11.0363,0.134503 16.49888,1.299694 7.90991,1.687218 13.16011,3.53797 20.69345,7.294663 22.96382,11.451492 39.08603,32.530062 44.65384,58.381522 1.47707,6.85811 1.60433,23.86951 0.23363,31.23202 -3.73854,20.08097 -15.71269,39.57468 -31.71651,51.63392 -4.05098,3.0525 -11.47773,7.61706 -14.70022,9.03491 -1.6861,0.74186 -1.72783,0.8071 -0.61645,0.96392 8.166,1.15222 16.86215,7.5146 20.91279,15.30043 2.67943,5.1502 3.38685,8.75179 3.397,17.29462 0.008,6.33533 -0.0816,7.08307 -0.97998,8.22523 l -0.98826,1.25636 h -60.94614 c -59.32393,0 -60.97611,-0.0243 -62.07183,-0.91266 z m 2.62411,-115.03663 c -1.04961,-0.50823 -2.0809,-2.2698 -2.0809,-3.55443 0,-0.40122 0.62721,-1.35669 1.39379,-2.12328 l 1.3938,-1.39379 h 8.83135 c 8.5735,0 8.86925,0.0326 10.12947,1.11659 0.92755,0.79785 1.29812,1.56804 1.29812,2.698 0,1.12997 -0.37057,1.90016 -1.29812,2.69801 -1.26181,1.08536 -1.54081,1.11569 -9.97359,1.08432 -4.92887,-0.0183 -9.11529,-0.24524 -9.69392,-0.52542 z M 105.67757,58.161736 c -1.24566,-1.337055 -1.23931,-3.25653 0.016,-4.852446 l 0.98826,-1.256365 h 14.91147 c 13.80114,0 14.96981,0.06446 15.69495,0.865731 1.34336,1.484398 1.47412,3.516479 0.32064,4.982897 l -1.02553,1.303743 h -14.9668 c -14.78259,0 -14.97876,-0.01284 -15.93902,-1.04356 z"
         id="path33"
         sodipodi:nodetypes="scssscsscccsscsscccccssssssscccccccccccsscssssssssssssscscssssscsssssssscssscsss" /><path
         style="fill:#7ec9c2"
         d="m 110.05959,282.51699 c -1.43916,-0.57905 -2.01647,-2.94614 -2.01647,-8.2679 0,-6.20784 0.67654,-11.12162 2.0346,-14.77738 4.14317,-11.15304 15.45467,-19.02149 27.4405,-19.08805 l 2.71057,-0.0151 -4.30515,-2.24986 c -9.10706,-4.75933 -17.21458,-11.13986 -23.88722,-18.79898 L 108.38368,215.127 H 92.065657 c -15.786494,0 -16.358942,-0.0322 -17.574385,-0.98826 l -1.256366,-0.98825 v -11.19245 -11.19245 l 1.170389,-1.17039 1.170388,-1.17039 h 46.056947 46.05694 l 1.17039,1.17039 1.17039,1.17039 v 11.01032 11.01032 l -1.17039,1.17038 c -1.00225,1.00225 -1.63588,1.1761 -4.41063,1.21012 l -3.24024,0.0397 2.86095,0.749 c 4.21972,1.10473 16.97888,1.093 21.61886,-0.0199 11.32777,-2.71689 19.65542,-7.44649 27.41856,-15.57208 19.72761,-20.64865 19.2587,-53.18843 -1.05924,-73.50637 -18.62167,-18.62168 -47.40706,-20.69605 -69.05909,-4.97665 l -2.00791,1.45775 -0.0186,14.68604 c -0.02,15.81636 -0.19515,17.05275 -2.50283,17.67093 -0.60058,0.16088 -8.45077,0.29544 -17.44488,0.29902 l -16.35292,0.007 -1.17039,-1.17039 -1.17039,-1.17039 V 109.8347 c 0,-43.614818 0.005,-43.831281 0.98826,-45.081615 l 0.98826,-1.256366 h 17.07826 c 16.09943,0 17.14278,0.0522 18.20394,0.910765 1.11721,0.903911 1.12676,0.995088 1.26909,12.115795 l 0.1434,11.20503 2.95596,-1.212765 c 4.04368,-1.659037 11.41568,-3.757735 16.69136,-4.751785 5.60088,-1.055321 22.24864,-1.188474 27.27153,-0.218124 18.51427,3.576696 32.06641,10.339868 44.45885,22.187115 12.80378,12.2405 20.85421,26.90508 24.5054,44.63878 0.98707,4.79414 1.12688,6.77226 1.11214,15.73522 -0.0189,11.51691 -0.5451,15.36573 -3.37857,24.71363 -2.18425,7.20603 -5.98626,15.14211 -10.53995,22.00044 -2.7568,4.15201 -5.29205,7.13874 -10.35444,12.19832 -7.22705,7.22304 -12.22051,10.95224 -20.49984,15.30964 -3.97382,2.09141 -4.55388,2.53017 -3.36965,2.54884 2.12451,0.0335 7.30773,1.92779 10.44679,3.81798 5.60978,3.37795 10.70156,9.84017 12.76391,16.1993 0.81282,2.50624 1.05054,4.69014 1.23005,11.30015 l 0.22251,8.19351 -1.22378,1.22378 -1.22378,1.22378 -60.69763,-0.0376 c -33.3837,-0.0207 -60.97036,-0.14738 -61.3037,-0.28149 z m 1.28462,-116.46626 c -1.69507,-1.69508 -1.75782,-2.89807 -0.24302,-4.65913 l 1.15078,-1.33786 h 9.28931 c 8.46573,0 9.3783,0.0805 10.29302,0.90834 1.50601,1.36292 1.3749,4.21395 -0.25266,5.49419 -1.16787,0.91865 -1.87572,0.98825 -10.05,0.98825 h -8.79363 z M 105.6936,57.94893 c -0.54354,-0.691001 -0.98826,-1.73492 -0.98826,-2.31982 0,-0.584899 0.44472,-1.628818 0.98826,-2.31982 l 0.98826,-1.256365 H 121.376 c 13.64642,0 14.7727,0.06362 15.79597,0.892215 1.38552,1.121921 1.49846,3.867169 0.21734,5.28279 -0.85574,0.94558 -1.36946,0.977366 -15.79598,0.977366 h -14.91147 z"
         id="path32"
         sodipodi:nodetypes="sssscsscsscccccccccccsscscssscssccccsccssscsssssssssssssscccssssscsssscsssscsssscs" /><path
         style="fill:#a3b1af"
         d="m 110.05959,282.51699 c -1.43916,-0.57905 -2.01647,-2.94614 -2.01647,-8.2679 0,-6.20784 0.67654,-11.12162 2.0346,-14.77738 4.14317,-11.15304 15.45467,-19.02149 27.4405,-19.08805 l 2.71057,-0.0151 -4.30515,-2.24986 c -9.10706,-4.75933 -17.21458,-11.13986 -23.88722,-18.79898 L 108.38368,215.127 H 92.065657 c -15.786494,0 -16.358942,-0.0322 -17.574385,-0.98826 l -1.256366,-0.98825 v -11.19245 -11.19245 l 1.170389,-1.17039 1.170388,-1.17039 h 46.056947 46.05694 l 1.17039,1.17039 1.17039,1.17039 v 11.01032 11.01032 l -1.17039,1.17038 c -1.00225,1.00225 -1.63588,1.1761 -4.41063,1.21012 l -3.24024,0.0397 2.86095,0.749 c 4.21972,1.10473 16.97888,1.093 21.61886,-0.0199 11.32777,-2.71689 19.65542,-7.44649 27.41856,-15.57208 19.72761,-20.64865 19.2587,-53.18843 -1.05924,-73.50637 -18.62167,-18.62168 -47.40706,-20.69605 -69.05909,-4.97665 l -2.00791,1.45775 -0.0186,14.68604 c -0.02,15.81636 -0.19515,17.05275 -2.50283,17.67093 -0.60058,0.16088 -8.45077,0.29544 -17.44488,0.29902 l -16.35292,0.007 -1.17039,-1.17039 -1.17039,-1.17039 V 109.8347 c 0,-43.614818 0.005,-43.831281 0.98826,-45.081615 l 0.98826,-1.256366 h 17.07826 c 16.09943,0 17.14278,0.0522 18.20394,0.910765 1.11721,0.903911 1.12676,0.995088 1.26909,12.115795 l 0.1434,11.20503 2.95596,-1.212765 c 4.04368,-1.659037 11.41568,-3.757735 16.69136,-4.751785 5.60088,-1.055321 22.24864,-1.188474 27.27153,-0.218124 18.51427,3.576696 32.06641,10.339868 44.45885,22.187115 12.80378,12.2405 20.85421,26.90508 24.5054,44.63878 0.98707,4.79414 1.12688,6.77226 1.11214,15.73522 -0.0189,11.51691 -0.5451,15.36573 -3.37857,24.71363 -2.18425,7.20603 -5.98626,15.14211 -10.53995,22.00044 -2.7568,4.15201 -5.29205,7.13874 -10.35444,12.19832 -7.22705,7.22304 -12.22051,10.95224 -20.49984,15.30964 -3.97382,2.09141 -4.55388,2.53017 -3.36965,2.54884 2.12451,0.0335 7.30773,1.92779 10.44679,3.81798 5.60978,3.37795 10.70156,9.84017 12.76391,16.1993 0.81282,2.50624 1.05054,4.69014 1.23005,11.30015 l 0.22251,8.19351 -1.22378,1.22378 -1.22378,1.22378 -60.69763,-0.0376 c -33.3837,-0.0207 -60.97036,-0.14738 -61.3037,-0.28149 z M 226.7725,270.66205 c 0,-3.79072 -0.23811,-5.72853 -0.97136,-7.90514 -1.96708,-5.8392 -5.74152,-10.06087 -11.42609,-12.77998 l -3.57618,-1.71061 h -39.57646 -39.57646 l -3.22264,1.52654 c -1.77244,0.83959 -4.40543,2.64517 -5.85108,4.0124 -4.87856,4.61395 -6.89991,9.72563 -6.89991,17.44883 v 4.42966 h 55.55009 55.55009 z m -37.45674,-31.68002 c 23.39816,-4.69175 43.01643,-19.63679 53.59,-40.82443 6.25084,-12.52562 8.98135,-26.53201 7.77767,-39.89632 -1.00181,-11.12297 -3.03192,-18.35376 -7.93076,-28.2475 C 235.93313,116.24099 224.0232,104.01463 210.48235,96.886064 189.82241,86.009667 164.69324,85.092592 144.03169,94.460983 l -3.08766,1.400014 v 9.089573 c 0,4.99927 0.12781,9.08958 0.28401,9.08958 0.15621,0 0.85356,-0.40222 1.54968,-0.89381 3.87856,-2.739 11.80265,-6.0195 18.66978,-7.72911 3.94398,-0.98187 5.6707,-1.12772 13.35109,-1.12772 7.68039,0 9.40712,0.14585 13.3511,1.12772 17.88231,4.4519 31.95773,15.38348 40.06475,31.11604 13.46305,26.12651 6.19345,58.06484 -17.23453,75.71835 -18.85027,14.2041 -44.43524,16.07174 -65.12596,4.75404 l -3.43452,-1.87866 -12.3007,0.0233 -12.3007,0.0233 4.26564,4.03097 c 12.4813,11.79462 27.69912,18.77897 45.56255,20.91133 3.96301,0.47306 17.0781,-0.21317 21.66954,-1.13384 z m -26.91461,-37.20612 v -5.7219 H 121.39421 80.387279 v 5.7219 5.7219 h 41.006931 41.00694 z m -29.08632,-92.2656 V 70.649091 h -11.92062 -11.92062 v 38.861219 38.86122 h 11.92062 11.92062 z m -21.97062,56.54042 c -1.69507,-1.69508 -1.75782,-2.89807 -0.24302,-4.65913 l 1.15078,-1.33786 h 9.28931 c 8.46573,0 9.3783,0.0805 10.29302,0.90834 1.50601,1.36292 1.3749,4.21395 -0.25266,5.49419 -1.16787,0.91865 -1.87572,0.98825 -10.05,0.98825 h -8.79363 z M 105.6936,57.94893 c -0.54354,-0.691001 -0.98826,-1.73492 -0.98826,-2.31982 0,-0.584899 0.44472,-1.628818 0.98826,-2.31982 l 0.98826,-1.256365 H 121.376 c 13.64642,0 14.7727,0.06362 15.79597,0.892215 1.38552,1.121921 1.49846,3.867169 0.21734,5.28279 -0.85574,0.94558 -1.36946,0.977366 -15.79598,0.977366 h -14.91147 z"
         id="path31"
         sodipodi:nodetypes="sssscsscsscccccccccccsscscssscssccccsccssscsssssssssssssscccsssssscccssscccssssssscssssssssscccssssccccccccccccccccccsscsssscsssscsssscs" /><path
         style="fill:#61a69c"
         d="m 109.55671,281.73253 c -0.97819,-1.04124 -1.03645,-1.54633 -1.03111,-8.94046 0.006,-8.86679 0.43573,-11.13047 3.15517,-16.63605 3.234,-6.54734 10.31364,-12.32279 17.80439,-14.52452 1.4341,-0.42152 4.39096,-0.90349 6.57081,-1.07105 l 3.96335,-0.30465 -4.53327,-2.43187 c -2.49329,-1.33753 -6.51895,-3.82659 -8.94591,-5.53124 -4.61565,-3.24195 -13.89704,-11.8708 -16.35131,-15.20172 l -1.43047,-1.94143 -16.591341,-0.0113 -16.591336,-0.0113 -1.170388,-1.17039 -1.170389,-1.17038 v -10.93582 c 0,-10.05652 0.07329,-11.02634 0.911439,-12.0615 l 0.911439,-1.12568 45.698186,-0.12696 c 32.46791,-0.0902 46.06598,0.0252 46.96855,0.39852 2.15158,0.88999 2.37109,2.24918 2.21302,13.7028 -0.17242,12.49265 0.0175,12.04216 -5.25689,12.46818 l -3.47156,0.28041 3.33777,0.70485 c 5.33009,1.12559 17.07275,0.91991 22.32978,-0.39111 15.60072,-3.89057 28.02984,-13.73772 35.1754,-27.86823 13.17888,-26.06152 2.21879,-58.44779 -24.08661,-71.17421 -14.96649,-7.24071 -31.85724,-7.14731 -46.76966,0.25864 -2.62254,1.30242 -5.99272,3.28021 -7.48929,4.39508 l -2.72104,2.02703 -0.13991,15.181 -0.13991,15.18101 -1.33786,1.15024 -1.33786,1.15025 h -16.20913 c -16.99553,0 -18.43406,-0.16234 -19.20335,-2.16708 -0.16291,-0.42453 -0.2962,-20.39733 -0.2962,-44.38401 V 65.837496 l 1.17039,-1.170388 1.17039,-1.170389 h 16.74189 c 9.93048,0 17.0943,0.188606 17.60809,0.463579 0.47641,0.254968 1.05225,0.845039 1.27963,1.311268 0.22738,0.466229 0.52084,5.699113 0.65213,11.628631 l 0.2387,10.780941 4.15626,-1.601373 c 13.20737,-5.088696 29.77505,-6.682102 43.76464,-4.209089 11.26044,1.990565 25.0394,7.741023 33.9479,14.167682 28.3485,20.450822 41.13018,55.311132 32.56267,88.810272 -3.90438,15.2662 -10.79684,27.18163 -22.34608,38.63104 -6.3934,6.33815 -12.07364,10.56056 -19.59141,14.56331 l -4.97884,2.65093 2.95794,0.60213 c 5.24467,1.06762 9.65358,3.55147 13.97548,7.87337 6.60647,6.60647 8.7707,12.75295 8.7707,24.90907 0,6.1772 -0.0437,6.46058 -1.17039,7.58725 l -1.17039,1.17039 H 171.3272 110.59348 Z M 226.7725,270.66205 c 0,-3.79072 -0.23811,-5.72853 -0.97136,-7.90514 -1.96708,-5.8392 -5.74152,-10.06087 -11.42609,-12.77998 l -3.57618,-1.71061 h -39.57646 -39.57646 l -3.22264,1.52654 c -1.77244,0.83959 -4.40543,2.64517 -5.85108,4.0124 -4.87856,4.61395 -6.89991,9.72563 -6.89991,17.44883 v 4.42966 h 55.55009 55.55009 z m -37.45674,-31.68002 c 23.39816,-4.69175 43.01643,-19.63679 53.59,-40.82443 6.25084,-12.52562 8.98135,-26.53201 7.77767,-39.89632 -1.00181,-11.12297 -3.03192,-18.35376 -7.93076,-28.2475 C 235.93313,116.24099 224.0232,104.01463 210.48235,96.886064 189.82241,86.009667 164.69324,85.092592 144.03169,94.460983 l -3.08766,1.400014 v 9.089573 c 0,4.99927 0.12781,9.08958 0.28401,9.08958 0.15621,0 0.85356,-0.40222 1.54968,-0.89381 3.87856,-2.739 11.80265,-6.0195 18.66978,-7.72911 3.94398,-0.98187 5.6707,-1.12772 13.35109,-1.12772 7.68039,0 9.40712,0.14585 13.3511,1.12772 17.88231,4.4519 31.95773,15.38348 40.06475,31.11604 13.46305,26.12651 6.19345,58.06484 -17.23453,75.71835 -18.85027,14.2041 -44.43524,16.07174 -65.12596,4.75404 l -3.43452,-1.87866 -12.3007,0.0233 -12.3007,0.0233 4.26564,4.03097 c 12.4813,11.79462 27.69912,18.77897 45.56255,20.91133 3.96301,0.47306 17.0781,-0.21317 21.66954,-1.13384 z m -26.91461,-37.20612 v -5.7219 H 121.39421 80.387279 v 5.7219 5.7219 h 41.006931 41.00694 z m -29.08632,-92.2656 V 70.649091 h -11.92062 -11.92062 v 38.861219 38.86122 h 11.92062 11.92062 z m -20.50346,57.61079 c -1.59817,-0.62082 -2.38413,-1.77174 -2.38413,-3.49118 0,-3.18927 0.4949,-3.33777 11.12373,-3.33777 8.74397,0 9.44438,0.0646 10.33339,0.95365 1.20462,1.20462 1.22396,3.37478 0.0431,4.83463 -0.89136,1.10194 -1.09496,1.12771 -9.6557,1.22209 -4.80983,0.053 -9.067,-0.0286 -9.46038,-0.18142 z M 105.65634,57.901553 c -1.23123,-1.565255 -0.99962,-3.741094 0.53374,-5.014185 0.90858,-0.754354 2.39581,-0.834443 15.49537,-0.834443 13.85457,0 14.53217,0.04184 15.44398,0.953649 0.59036,0.590355 0.95365,1.589416 0.95365,2.622536 0,1.033121 -0.36329,2.032182 -0.95365,2.622537 -0.91253,0.912536 -1.58941,0.953649 -15.70061,0.953649 h -14.74696 z"
         id="path30" /><path
         style="fill:#45857b"
         d="m 109.73275,281.8136 -1.29992,-1.02251 0.2045,-8.8716 c 0.23865,-10.35295 0.81165,-12.57648 4.7636,-18.48514 5.18923,-7.75854 12.77402,-11.98664 23.0295,-12.83768 l 3.83082,-0.31789 -4.06924,-2.12847 c -9.70467,-5.07614 -19.43115,-13.00196 -26.33041,-21.45588 l -1.25021,-1.53192 -16.777167,-0.13696 -16.777163,-0.13696 -0.911077,-1.12568 c -0.837564,-1.03485 -0.911077,-2.00632 -0.911077,-12.03983 0,-10.23151 0.05889,-10.97303 0.941521,-11.85566 0.517837,-0.51784 1.429765,-1.06069 2.026506,-1.20633 0.596741,-0.14565 21.434221,-0.20475 46.305507,-0.13134 l 45.22053,0.13348 1.15069,1.33785 c 1.13883,1.32408 1.15069,1.44298 1.15069,11.54057 0,10.36971 -0.26273,12.2036 -1.85268,12.93187 -0.42342,0.19395 -2.27186,0.4765 -4.10763,0.6279 l -3.33778,0.27528 4.29143,0.82977 c 2.4932,0.48207 6.51302,0.82936 9.59324,0.8288 24.91779,-0.005 45.58088,-16.30157 51.78871,-40.84582 0.90747,-3.58793 1.06045,-5.42118 1.02816,-12.32111 -0.0334,-7.14593 -0.18495,-8.65821 -1.27912,-12.76811 -1.49094,-5.6003 -4.6348,-12.40964 -7.93077,-17.17743 -2.8582,-4.13454 -9.59804,-10.8322 -13.62376,-13.53851 -18.58979,-12.49709 -42.30336,-12.19353 -60.67596,0.77672 l -3.45698,2.44047 v 15.17207 c 0,14.81558 -0.0236,15.19342 -1.00309,16.08042 -0.93844,0.8498 -2.05088,0.91721 -17.26099,1.04593 -17.46512,0.14779 -18.44469,0.0363 -19.37211,-2.20499 -0.37313,-0.90175 -0.48877,-13.90804 -0.39852,-44.82285 l 0.12713,-43.552478 1.12568,-0.911431 c 1.06065,-0.858778 2.09533,-0.911432 17.91023,-0.911432 16.23235,0 16.81888,0.03199 17.82811,0.972225 1.01625,0.946781 1.04356,1.264984 1.04356,12.159032 0,6.152744 0.0936,11.186808 0.20804,11.186808 0.11442,0 1.78246,-0.606255 3.70675,-1.347232 22.03157,-8.483598 45.85115,-7.499403 66.89369,2.763963 37.89504,18.483065 55.91004,61.651855 42.47877,101.790595 -5.15508,15.40575 -15.82932,30.14189 -28.89042,39.8842 -4.15184,3.09687 -10.72492,7.11033 -14.06408,8.5874 l -2.32535,1.02861 3.44136,0.87395 c 7.68796,1.95238 14.56838,6.99462 18.35013,13.4477 2.65012,4.52209 3.74874,9.06085 4.01955,16.60621 0.27292,7.60411 0.0924,9.02547 -1.32656,10.44442 -0.92758,0.92758 -1.83704,0.94152 -61.43397,0.94152 h -60.49244 z m 117.5083,-9.82524 c -0.0174,-7.76176 -2.06903,-13.23978 -6.68879,-17.85953 -3.2542,-3.25421 -7.26898,-5.32063 -11.82634,-6.08708 -2.20308,-0.3705 -14.24263,-0.48819 -39.41081,-0.38522 l -36.23869,0.14825 -2.86095,1.07516 c -5.95017,2.23611 -9.98281,5.98976 -12.76672,11.88349 -1.41351,2.9925 -1.54261,3.68117 -1.70201,9.07922 l -0.17249,5.8411 h 55.83754 55.83754 z m -37.5343,-32.97997 c 36.99511,-7.43081 62.97783,-40.63995 61.21427,-78.23941 -1.78362,-38.02697 -30.39484,-68.333587 -68.44256,-72.498227 -12.25943,-1.341897 -25.90338,0.756843 -38.07745,5.857152 l -3.45698,1.448296 v 9.442529 9.44252 l 3.38371,-2.08619 c 8.20672,-5.05979 20.20948,-8.34823 30.47085,-8.34823 19.7884,0 38.88461,10.22854 49.85145,26.70203 6.5537,9.84441 9.61332,19.32628 10.07806,31.23218 0.66106,16.93547 -5.47679,32.59848 -17.47676,44.59845 -11.51124,11.51124 -26.24069,17.62718 -42.45275,17.62718 -9.82115,0 -18.22944,-1.99906 -27.11265,-6.446 l -5.22106,-2.61367 h -12.30965 -12.30965 l 3.08558,3.14052 c 9.73462,9.90794 24.63106,17.86433 38.63321,20.63453 7.01864,1.38857 7.37147,1.41544 16.6647,1.26894 6.22779,-0.0982 9.64653,-0.39308 13.47768,-1.1626 z m -26.82878,-37.23248 v -6.19872 H 121.63263 80.387279 v 6.19872 6.19872 h 41.245351 41.24534 z M 133.31483,109.74872 V 70.649091 h -11.92062 -11.92062 v 39.099629 39.09964 h 11.92062 11.92062 z m -22.09845,56.34699 c -1.08575,-1.19974 -1.00149,-3.68391 0.16451,-4.84991 0.88845,-0.88844 1.58942,-0.95365 10.25174,-0.95365 8.66231,0 9.36329,0.0652 10.25173,0.95365 0.52981,0.52981 0.95365,1.58942 0.95365,2.38412 0,0.79471 -0.42384,1.85432 -0.95365,2.38413 -0.88958,0.88958 -1.58942,0.95365 -10.41624,0.95365 -8.56165,0 -9.53773,-0.083 -10.25174,-0.87199 z m -5.1231,-107.782629 c -0.79746,-0.645745 -1.10184,-1.387178 -1.10184,-2.683971 0,-1.296792 0.30438,-2.038225 1.10184,-2.68397 1.02137,-0.827059 2.13792,-0.892215 15.28945,-0.892215 13.63123,0 14.23689,0.03876 15.44399,0.988257 1.57425,1.238308 1.72254,3.790643 0.30271,5.210465 -0.91181,0.911808 -1.58941,0.953649 -15.44398,0.953649 -13.4473,0 -14.56964,-0.06422 -15.59217,-0.892215 z"
         id="path29" /><path
         style="fill:#1d5d53"
         d="m 109.69033,281.66573 c -1.14132,-1.14132 -1.17021,-1.35151 -1.16334,-8.46364 0.008,-8.65761 0.63621,-11.83322 3.38356,-17.11397 2.26573,-4.35502 5.73146,-8.15042 9.90657,-10.84893 4.28962,-2.77251 8.40109,-4.01537 14.35866,-4.34049 l 5.00666,-0.27323 -4.31392,-2.21531 c -9.32677,-4.78952 -18.20633,-11.73906 -24.91777,-19.50176 l -3.66922,-4.24395 -16.450455,-0.0144 c -9.047752,-0.008 -16.686549,-0.17208 -16.975105,-0.36475 -1.39687,-0.93272 -1.621064,-2.66277 -1.621064,-12.50935 0,-9.84659 0.224194,-11.57664 1.621064,-12.50935 0.288556,-0.19268 21.358439,-0.3536 46.82196,-0.35762 45.29669,-0.007 46.31549,0.0128 47.13855,0.92226 0.75767,0.83721 0.83415,2.03171 0.76984,12.02361 -0.086,13.36249 0.1512,12.79537 -5.35177,12.79537 -2.05739,0 -3.7407,0.19228 -3.7407,0.42728 0,0.8254 8.31964,1.95879 14.37128,1.95781 6.69175,-0.001 12.04283,-0.83887 17.26585,-2.70322 18.49149,-6.60053 31.5896,-22.1132 34.9532,-41.39664 1.00202,-5.74457 0.65126,-16.13892 -0.71946,-21.32055 -7.90607,-29.88661 -37.34683,-46.73764 -66.77936,-38.22254 -5.17022,1.49579 -11.73781,4.71649 -15.89959,7.79706 l -3.21856,2.38239 v 14.91632 c 0,12.72871 -0.10886,15.07174 -0.74228,15.97607 l -0.74227,1.05974 h -17.30317 c -16.98456,0 -17.31989,-0.0185 -18.21151,-1.00358 -0.87674,-0.96867 -0.91329,-2.49093 -1.05054,-43.74868 -0.095,-28.568932 0.0221,-43.312049 0.35323,-44.45464 0.31407,-1.083763 0.9416,-1.912849 1.71431,-2.264918 0.85074,-0.387624 6.08929,-0.555363 17.34419,-0.555363 15.59153,0 16.16689,0.03271 17.38167,0.988258 l 1.25637,0.988258 v 11.226387 c 0,10.471149 0.0561,11.209216 0.83444,10.971145 0.45894,-0.140383 2.87287,-1.001135 5.36428,-1.912783 35.52335,-12.998581 75.9776,0.313945 97.31845,32.025166 27.83667,41.36364 12.98036,98.27161 -31.51662,120.72629 l -4.05302,2.04528 3.30109,0.84391 c 10.57344,2.70308 18.86366,10.72714 21.45319,20.76444 0.5413,2.09817 0.75585,5.16746 0.75585,10.81316 v 7.88338 l -1.25636,0.98825 c -1.25599,0.98796 -1.27477,0.98826 -61.53208,0.98826 h -60.27571 z m 117.559,-10.01152 c 0,-7.90271 -1.7921,-12.61654 -6.63934,-17.46379 -3.36456,-3.36455 -6.67313,-5.21726 -10.90745,-6.10787 -1.72973,-0.36382 -13.91913,-0.53146 -38.64183,-0.53146 -39.21557,0 -38.70853,-0.0308 -44.04623,2.67403 -1.35835,0.68833 -3.6785,2.46033 -5.15588,3.93778 -4.52403,4.52422 -6.65063,10.36874 -6.65951,18.30228 l -0.004,3.21857 h 56.02692 56.02692 z m -39.31468,-32.21314 c 15.63265,-2.67253 29.17591,-9.78605 40.76728,-21.41275 11.14153,-11.1755 17.64986,-23.16601 21.05095,-38.78284 0.91666,-4.20903 1.06431,-6.30922 1.06431,-15.13873 0,-8.80188 -0.14913,-10.93605 -1.05447,-15.09044 -6.77012,-31.06655 -30.52636,-54.319218 -61.37462,-60.073646 -7.21782,-1.346412 -21.04258,-1.247184 -28.24126,0.202703 -5.67736,1.143475 -13.59041,3.705858 -17.38959,5.63105 l -2.29004,1.160453 v 9.29005 c 0,5.10953 0.16093,9.28864 0.35762,9.28691 0.19669,-0.002 1.00133,-0.44237 1.78809,-0.9792 2.38966,-1.63053 8.38064,-4.54656 12.04761,-5.864 12.48745,-4.48639 27.78642,-4.4865 40.27613,-2.7e-4 8.54494,3.06929 15.35244,7.44014 22.10532,14.19301 8.83516,8.83516 14.36383,19.13838 16.71249,31.14534 1.11455,5.69789 1.12299,16.59151 0.0172,22.16505 -7.89097,39.77202 -50.53978,60.57585 -86.58613,42.23618 l -4.48708,-2.28294 h -12.42642 -12.42643 l 3.08558,3.14291 c 10.59282,10.78961 25.29111,18.49022 40.35373,21.14181 7.35889,1.29544 19.16785,1.30845 26.64976,0.0293 z m -25.05668,-37.66516 v -6.19872 H 121.63263 80.387279 v 6.19872 6.19872 h 41.245351 41.24534 z M 133.79166,109.74872 V 70.649091 h -12.15903 -12.15904 v 39.099629 39.09964 h 12.15904 12.15903 z m -22.41077,56.26533 c -0.5298,-0.52981 -0.95365,-1.58942 -0.95365,-2.38413 0,-0.7947 0.42385,-1.85431 0.95365,-2.38412 0.8882,-0.8882 1.58942,-0.95365 10.21713,-0.95365 h 9.26347 l 0.98826,1.25637 c 1.24671,1.58493 1.24671,2.57788 0,4.16281 l -0.98826,1.25637 h -9.26347 c -8.62771,0 -9.32893,-0.0654 -10.21713,-0.95365 z M 106.13582,58.251647 c -0.56723,-0.567225 -0.95069,-1.58159 -0.94635,-2.50333 0.0169,-3.576916 0.54861,-3.695392 16.58592,-3.695392 13.23398,0 13.84605,0.04019 15.05133,0.988257 1.73749,1.366711 1.73749,3.809146 0,5.175857 -1.20734,0.949688 -1.81215,0.988257 -15.49681,0.988257 -13.60467,0 -14.28302,-0.04257 -15.19409,-0.953649 z"
         id="path28" /><path
         style="fill:#004a3d"
         d="m 110.66566,282.28857 c -1.97737,-1.08787 -2.14602,-1.77609 -2.13744,-8.72246 0.01,-8.02815 0.76007,-12.0521 3.16083,-16.95535 3.19201,-6.51926 10.83836,-12.87782 17.81119,-14.81145 1.18014,-0.32727 4.29142,-0.72264 6.91396,-0.8786 l 4.76824,-0.28358 -4.76824,-2.55983 c -9.56195,-5.13333 -18.131,-11.89361 -24.49421,-19.32393 l -3.51391,-4.10319 H 91.808749 75.211422 l -0.988258,-1.25637 c -0.93093,-1.18349 -0.988258,-1.85742 -0.988258,-11.6179 0,-9.76048 0.05733,-10.43442 0.988258,-11.61791 l 0.988258,-1.25636 h 46.217398 c 45.58164,0 46.23052,0.0131 47.17105,0.95365 0.89918,0.89918 0.95365,1.58941 0.95365,12.08513 0,13.3753 0.30035,12.70976 -5.7356,12.70976 -4.81458,0 -4.57372,0.56071 0.72894,1.69697 5.16125,1.10595 15.35254,1.10466 20.50347,-0.003 10.77359,-2.31595 18.8062,-6.55034 26.54533,-13.99339 8.32884,-8.01019 13.86784,-18.53672 15.66875,-29.7775 0.93557,-5.83954 0.3615,-16.68531 -1.17738,-22.24391 -5.081,-18.35321 -19.4061,-32.62728 -37.71013,-37.5758 -4.36141,-1.17912 -5.4907,-1.28608 -13.57831,-1.28608 -8.0876,0 -9.21689,0.10696 -13.57831,1.28608 -5.55802,1.50262 -12.97757,5.00655 -17.52555,8.27657 l -3.20961,2.30772 -0.009,15.13919 c -0.009,14.49707 -0.0494,15.17963 -0.9626,16.09283 -0.91761,0.91761 -1.58942,0.95365 -17.77484,0.95365 -14.45276,0 -16.97039,-0.10451 -17.88093,-0.74227 l -1.05974,-0.74228 V 109.7559 65.473235 l 1.27838,-1.00558 c 1.25297,-0.985582 1.6094,-1.002864 17.92351,-0.869051 l 16.64511,0.136528 0.91108,1.12568 c 0.83874,1.036309 0.91108,2.009773 0.91108,12.261293 v 11.135613 l 2.09546,-0.898222 c 3.82431,-1.639289 11.42993,-3.909506 16.26229,-4.854163 33.25494,-6.500858 67.20729,7.910288 85.78455,36.411427 17.11928,26.26432 17.88452,60.3343 1.96282,87.38898 -7.90842,13.43826 -19.34781,24.2978 -33.52173,31.82255 l -4.85496,2.57743 3.44732,0.81319 c 9.33923,2.20303 16.87407,8.7221 20.47459,17.71438 1.49147,3.72495 1.53166,4.02207 1.71019,12.64239 0.17808,8.59826 0.15562,8.85241 -0.86366,9.77491 -1.0311,0.93319 -1.9314,0.9487 -61.19564,1.05488 -43.04622,0.0771 -60.4203,-0.0414 -61.10278,-0.4169 z m 116.47881,-12.20751 c -0.158,-4.31207 -0.45103,-6.2315 -1.27204,-8.3324 -2.44453,-6.25535 -7.82399,-11.26464 -14.21785,-13.2395 -2.99384,-0.92471 -4.39196,-0.95807 -40.14381,-0.95807 -40.63169,0 -40.04419,-0.0374 -45.12413,2.86909 -1.3481,0.77131 -3.53751,2.5511 -4.86536,3.9551 -4.34003,4.58894 -6.32579,9.9623 -6.32579,17.11723 v 4.19124 h 56.07714 56.07714 z m -45.1935,-29.6914 c 26.19844,-2.71455 48.76041,-17.94436 60.73564,-40.99788 10.97571,-21.12933 11.45014,-46.22056 1.28476,-67.94753 -8.54735,-18.26871 -25.52075,-33.36286 -44.76774,-39.811193 -7.83991,-2.626613 -12.42636,-3.392263 -22.02091,-3.676114 -12.73435,-0.376742 -21.43241,1.182918 -32.5433,5.835383 l -4.17221,1.747034 v 9.48881 c 0,5.21884 0.13546,9.4888 0.30103,9.4888 0.16557,0 2.15035,-1.04675 4.41063,-2.32611 5.0178,-2.84017 9.27782,-4.54683 15.27987,-6.12147 3.67143,-0.9632 6.1049,-1.24433 12.43255,-1.43627 8.64142,-0.26213 12.93545,0.28491 20.20498,2.57401 21.03583,6.62397 37.51962,25.83537 40.84312,47.60154 0.79525,5.20824 0.67835,14.84027 -0.24268,19.99568 -4.30968,24.12309 -23.47553,43.47478 -47.80007,48.26355 -5.64865,1.11205 -17.03899,1.09286 -22.30343,-0.0376 -5.85715,-1.2577 -11.94337,-3.43037 -16.87663,-6.02466 l -4.47919,-2.3555 H 129.9085 c -6.94853,0 -12.32888,0.18647 -12.32888,0.42729 0,0.23501 1.72732,2.05223 3.8385,4.03828 16.73071,15.73905 38.8672,23.51879 60.53285,21.27391 z m -19.073,-38.61639 v -6.20135 l -41.36455,0.12184 -41.364554,0.12184 -0.133452,6.07951 -0.133452,6.07952 h 41.498008 41.498 z m -29.20275,-92.14375 -0.12197,-39.218841 -12.03983,-0.127394 -12.03983,-0.127394 v 39.346229 39.34624 h 12.16181 12.1618 z m -22.21121,56.23459 c -1.42182,-1.51346 -1.33325,-3.36223 0.2196,-4.5837 1.1677,-0.91851 1.8759,-0.98826 10.03499,-0.98826 8.68476,0 8.79115,0.0125 9.94902,1.17039 0.64371,0.64371 1.17039,1.61904 1.17039,2.16738 0,0.54835 -0.52668,1.52368 -1.17039,2.16739 -1.15994,1.15994 -1.25071,1.17039 -10.16862,1.17039 -8.78922,0 -9.0223,-0.0256 -10.03499,-1.10359 z M 106.43854,58.217039 c -1.52302,-1.198002 -1.71863,-3.690676 -0.38438,-4.898151 0.77207,-0.69871 2.57209,-0.789139 15.70818,-0.789139 14.79076,0 14.83847,0.0032 15.57847,1.059746 1.06767,1.524317 0.91578,3.101519 -0.42812,4.445413 l -1.17038,1.170388 H 121.7186 c -13.46539,0 -14.07372,-0.03934 -15.28006,-0.988257 z"
         id="path27" /></g></g></svg>
